<svg version="1" xmlns="http://www.w3.org/2000/svg" width="933.333" height="933.333" viewBox="0 0 700.000000 700.000000"><path d="M87.9 114.5c-.1.5-.2 106.9-.3 236.2L87.5 586l2.5.1c9.7.2 102.2 0 102.6-.3.2-.1 32.7-32.6 72.3-72.2l72-71.9-39.4-39.3-39.3-39.4-32.6 32.7c-17.9 18-32.7 32.3-32.7 31.7-.4-3.1-.3-155.4.1-155.4.3 0 35.8 35.3 79 78.5 52.7 52.8 78.7 78.1 79.2 77.3.4-.7 18-18.5 39.1-39.5l38.4-38.3-117.6-117.5c-64.7-64.6-117.9-117.8-118.3-118.1-1.3-1.1-104.8-1-104.9.1z"/><path d="M509.3 113.8c-1.2.2-30.9 29.1-74.1 72.3l-72 72 19.6 19.6 39.3 39.3 19.7 19.8 32.6-32.6 32.6-32.6v157.2c0 125.1.3 157.2 1.3 157.3 1.5.1 101.9.1 103.2 0 1-.1 1.5-472 .5-472.2-1.8-.2-100.9-.3-102.7-.1z"/></svg>